<svg xmlns="http://www.w3.org/2000/svg" viewBox="0 0 512 512"><defs><style>.cls-1{fill:#d09966;}.cls-2{fill:#231f20;}.cls-3{fill:none;}</style></defs><title>JJLogo</title><g id="Layer_2" data-name="Layer 2"><g id="Background"><rect id="firaMarkBackground" class="cls-1" width="512" height="512"/></g><g id="FiraMark"><g id="firaMarkGroup"><path id="firaMarkLastJ" class="cls-2" d="M318,369q0,55.91-33.68,88.44T190.15,490q-29.33,0-51.55-7.33a174.86,174.86,0,0,1-44.22-22.45l28.41-46.28q16.5,11,30.7,15.58T186,434.1q25.19,0,41-16.27t15.81-48.35V220.55H145.7v-55H318Z"/><g id="firaMarkFirstJ"><path class="cls-2" d="M340,165.56h0v55h74.85V369.48q0,32.08-15.81,48.35T358,434.1a109.53,109.53,0,0,1-29.3-3.62,125.84,125.84,0,0,1-29.12,42.81c-1.27,1.23-2.57,2.42-3.89,3.59a154,154,0,0,0,14.88,5.8Q332.82,490,362.15,490q60.49,0,94.17-32.54T490,369V165.56Z"/></g><rect id="firaMarkBuffer" class="cls-3" x="64.7" y="143.56" width="447.3" height="368.44"/></g></g></g></svg>