<svg xmlns="http://www.w3.org/2000/svg" viewBox="0 0 447.3 368.44"><defs><style>.cls-1{fill:#d09966;}.cls-2{fill:none;}</style></defs><title>JJMark</title><g id="Layer_2" data-name="Layer 2"><g id="FiraMark_Color" data-name="FiraMark Color"><g id="firaMarkGroup"><path id="firaMarkLastJ" class="cls-1" d="M253.3,225.46q0,55.91-33.68,88.44t-94.17,32.54q-29.33,0-51.55-7.33a174.86,174.86,0,0,1-44.22-22.45l28.41-46.28q16.5,11,30.7,15.58t32.54,4.58q25.19,0,41-16.27t15.81-48.35V77H81V22H253.3Z"/><g id="firaMarkFirstJ"><path class="cls-1" d="M275.3,22h0V77h74.85V225.92q0,32.08-15.81,48.35t-41,16.27a109.53,109.53,0,0,1-29.3-3.62,125.84,125.84,0,0,1-29.12,42.81c-1.27,1.23-2.57,2.42-3.89,3.59a154,154,0,0,0,14.88,5.8q22.22,7.32,51.55,7.33,60.49,0,94.17-32.54t33.68-88.44V22Z"/></g><rect id="firaMarkBuffer" class="cls-2" width="447.3" height="368.44"/></g></g></g></svg>