<?xml version="1.0" standalone="no"?>
<!DOCTYPE svg PUBLIC "-//W3C//DTD SVG 20010904//EN"
 "http://www.w3.org/TR/2001/REC-SVG-20010904/DTD/svg10.dtd">
<svg version="1.0" xmlns="http://www.w3.org/2000/svg"
 width="512.000000pt" height="512.000000pt" viewBox="0 0 512.000000 512.000000"
 preserveAspectRatio="xMidYMid meet">
<metadata>
Created by potrace 1.11, written by Peter Selinger 2001-2013
</metadata>
<g transform="translate(0.000000,512.000000) scale(0.100000,-0.100000)"
fill="#000000" stroke="none">
<path d="M1460 3185 l0 -275 485 0 486 0 -3 -817 c-3 -804 -4 -819 -25 -895
-35 -123 -70 -186 -142 -259 -121 -121 -257 -166 -465 -156 -185 9 -332 55
-494 153 -41 25 -76 44 -77 42 -13 -15 -275 -450 -275 -457 0 -14 130 -94 234
-145 202 -99 390 -143 646 -153 309 -11 564 38 776 151 320 170 515 469 563
861 7 60 11 443 11 1158 l0 1067 -860 0 -860 0 0 -275z"/>
<path d="M3400 3185 l0 -275 375 0 376 0 -3 -817 c-3 -804 -4 -819 -25 -895
-35 -123 -70 -186 -142 -258 -78 -77 -142 -113 -247 -140 -109 -28 -219 -27
-409 5 l-40 7 -30 -63 c-48 -102 -139 -233 -221 -319 l-76 -80 45 -19 c265
-114 678 -143 1007 -71 432 93 741 384 845 793 43 172 45 221 45 1340 l0 1067
-750 0 -750 0 0 -275z"/>
</g>
</svg>
