<svg xmlns="http://www.w3.org/2000/svg" width="447.3" height="368.4" overflow="scroll" viewBox="0 0 447.3 368.4">
    <style>
        .st0{fill:none;}
    </style>
    <g id="firaMarkGroup_1_">
        <path id="firaMarkLastJ_1_" d="M253.3 225.5c0 37.3-11.2 66.8-33.7 88.4-22.5 21.7-53.8 32.5-94.2 32.5-19.6 0-36.7-2.4-51.6-7.3-14.8-4.9-29.6-12.4-44.2-22.5L58 270.3c11 7.3 21.2 12.5 30.7 15.6 9.5 3.1 20.3 4.6 32.5 4.6 16.8 0 30.5-5.4 41-16.3 10.5-10.8 15.8-27 15.8-48.3V77H81V22h172.3v203.5z" fill="#D09966"/>
        <path id="firaMarkFirstJ_1_" d="M275.3 22v55h74.8v148.9c0 21.4-5.3 37.5-15.8 48.3-10.5 10.8-24.2 16.3-41 16.3-10.9 0-20.6-1.2-29.3-3.6-6.7 16.3-16.4 30.6-29.1 42.8l-3.9 3.6c5 2.2 9.9 4.2 14.9 5.8 14.8 4.9 32 7.3 51.6 7.3 40.3 0 71.7-10.8 94.2-32.5s33.7-51.2 33.7-88.4V22H275.3z" fill="#D09966"/>
        <path id="firaMarkBuffer_1_" d="M0 0h447.3v368.4H0z" class="st0"/>
    </g>
</svg>
